<svg width="24" height="25" viewBox="0 0 24 25" fill="none" xmlns="http://www.w3.org/2000/svg">
<path d="M9.25941 10.3774C9.25941 10.3774 9.25941 10.3774 9.25941 10.3774L9.26919 10.3755C9.26592 10.3762 9.26265 10.3768 9.25941 10.3774ZM10.0489 10.461L10.0486 10.4598L11.0809 8.3951C11.334 7.88901 11.321 7.29071 11.0465 6.7961L9.84802 4.6373C9.54571 4.09285 8.9719 3.755 8.34903 3.755H5.86409C4.13909 3.755 2.81378 5.38374 3.39272 7.09958C4.22897 9.57794 5.85469 13.5424 8.40612 16.0938C10.9575 18.6452 14.9219 20.2709 17.4003 21.1071C19.1162 21.6861 20.7449 20.3608 20.7449 18.6358V16.1504C20.7449 15.528 20.4076 14.9544 19.8634 14.6519L17.6986 13.4483C17.2038 13.1733 16.605 13.1602 16.0986 13.4134L14.0326 14.4457C13.8743 14.4 13.6449 14.3247 13.3745 14.2095C12.8307 13.9778 12.1395 13.5922 11.5236 12.9763C10.9076 12.3603 10.5204 11.6674 10.2872 11.1218C10.1711 10.8504 10.0952 10.6201 10.0489 10.461Z" fill="#434343"/>
</svg>
