<svg width="60" height="60" viewBox="0 0 60 60" fill="none" xmlns="http://www.w3.org/2000/svg">
<path d="M3.125 30C3.125 15.1573 15.1573 3.125 30 3.125C44.8427 3.125 56.875 15.1573 56.875 30C56.875 44.8427 44.8427 56.875 30 56.875C15.1573 56.875 3.125 44.8427 3.125 30ZM24.0625 19.7159C23.4824 20.0509 23.125 20.6698 23.125 21.3397V38.6602C23.125 39.3301 23.4824 39.9491 24.0625 40.284C24.6426 40.619 25.3574 40.619 25.9375 40.284L40.9375 31.6238C41.5176 31.2888 41.875 30.6698 41.875 30C41.875 29.3301 41.5176 28.7111 40.9375 28.3762L25.9375 19.7159C25.3574 19.381 24.6426 19.381 24.0625 19.7159Z" fill="white"/>
</svg>
