<svg width="20" height="20" viewBox="0 0 20 20" fill="none" xmlns="http://www.w3.org/2000/svg">
<path d="M5.69639 11.7933C5.80428 11.5874 6.01754 11.4583 6.25 11.4583H13.75C13.9825 11.4583 14.1957 11.5874 14.3036 11.7933C14.4115 11.9992 14.3962 12.248 14.2639 12.4391L10.5139 17.8558C10.3971 18.0244 10.2051 18.125 10 18.125C9.79491 18.125 9.60287 18.0244 9.48613 17.8558L5.73613 12.4391C5.60381 12.248 5.5885 11.9992 5.69639 11.7933ZM7.44286 12.7083L10 16.402L12.5571 12.7083H7.44286Z" fill="#6C6C6C"/>
<path d="M10 1.875C10.2051 1.875 10.3971 1.97562 10.5139 2.14424L14.2639 7.56091C14.3962 7.75204 14.4115 8.00082 14.3036 8.20673C14.1957 8.41265 13.9825 8.54167 13.75 8.54167H6.25C6.01754 8.54167 5.80428 8.41265 5.69639 8.20673C5.5885 8.00082 5.60381 7.75204 5.73613 7.56091L9.48613 2.14424C9.60287 1.97562 9.79491 1.875 10 1.875ZM7.44286 7.29167H12.5571L10 3.59801L7.44286 7.29167Z" fill="#6C6C6C"/>
</svg>
